<svg width="262.317" height="221.833" viewBox="3 4 262.317 221.833" fill="none" xmlns="http://www.w3.org/2000/svg">
<g clip-path="url(#clip0_902_8098)">
<path d="M219.741 159.067C219.588 144.236 216.481 134.533 210.063 128.6C208.942 127.545 207.72 126.74 206.549 125.986C199.876 121.863 191.93 121.763 185.513 122.265C184.952 122.265 184.392 122.366 183.883 122.416C182.1 122.567 180.216 122.818 178.229 123.07C176.243 123.372 174.205 123.673 171.913 124.025L168.857 124.528C165.139 125.131 161.37 125.785 157.397 126.338C149.095 127.494 138.144 128.55 126.938 126.589C121.437 125.634 116.191 123.874 111.352 121.914C106.972 120.104 102.948 118.093 99.4846 116.283C96.3777 114.674 93.3218 112.914 90.2656 111.205C87.6679 109.747 85.1212 108.339 82.6255 107.032C80.1804 105.725 77.7357 104.518 75.3925 103.412C75.0362 103.261 74.6798 103.01 74.3231 102.859C68.7202 100.396 60.6725 97.5297 52.5233 99.2393C51.199 99.4907 49.8747 99.8928 48.5502 100.396C40.0951 103.814 33.7283 111.859 28.2784 126.187C20.2818 152.481 25.6298 175.708 43.6605 193.405C62.4046 211.756 89.9089 219.75 109.672 223.169C118.127 224.627 128.212 225.833 138.857 225.833C153.067 225.833 168.297 223.722 181.998 217.487C205.071 206.98 218.161 186.92 219.741 159.52V159.067V159.067Z" fill="#F5E5C9"/>
<path d="M96.1235 36.1935C97.6006 35.7412 99.1795 35.4394 100.708 35.0876L100.724 35.0843C98.027 32.1713 95.1803 29.1074 94.1121 25.291C93.8572 24.2854 93.6535 23.28 93.8061 22.2745C93.9591 20.8667 94.6722 19.6097 95.3343 18.353C96.9132 15.2862 98.2375 11.6161 96.8113 8.44874C95.7417 6.08566 93.2968 4.52723 90.7501 4.12481C88.2034 3.72278 85.5549 4.32611 83.1609 5.43204C79.3916 7.19158 75.8264 9.75577 73.2287 13.0239C70.6311 16.2918 68.9501 19.7608 67.7788 23.5817C67.1677 25.5926 66.7601 27.6036 66.5562 29.665C65.6928 37.2357 67.3122 45.0061 70.4529 51.9797C77.4308 44.5391 86.2934 39.1599 96.1233 36.1935H96.1235Z" fill="#A6A6A6"/>
<path d="M206.082 75.354C206.318 75.0582 216.102 62.7731 217.819 55.1915C219.739 46.7124 218.157 37.2684 212.693 30.5121C210.731 28.0983 208.187 25.9438 205.069 25.3101C203.361 24.9318 201.506 25.1474 199.921 25.837C199.129 26.1819 198.427 26.6843 197.819 27.2949C197.487 27.6233 197.308 27.963 197.028 28.2952L196.692 28.6735C196.525 28.8627 196.451 29.1599 196.385 29.3569C195.562 31.4637 195.133 33.7512 195.219 35.9758C195.208 36.1264 195.197 36.2767 195.236 36.431C195.34 37.7496 195.597 39.0793 195.244 40.3639C195.012 41.4054 194.385 42.2668 193.707 43.1239C191.185 46.1807 183.8 49.4328 183.597 49.522C184.823 50.3047 186.094 51.0771 187.245 51.9801C201.072 62.8322 206.073 75.3245 206.083 75.354H206.082Z" fill="#A6A6A6"/>
<path d="M261.534 86.973C255.367 79.7943 244.139 76.2132 235.072 75.0566C230.183 74.4032 224.784 74.2019 218.569 74.4533H218.06C212.94 74.7536 209.032 75.0539 206.082 75.3542C206.073 75.3253 201.072 62.8326 187.245 51.9803C185.993 50.9978 184.596 50.1703 183.272 49.3156C178.127 46.1484 172.474 43.6848 166.311 42.2269C171.608 40.1152 179.35 39.8638 182.406 40.0147C183.883 40.1154 185.309 39.1601 185.818 37.7523C186.328 36.3447 185.818 34.7358 184.596 33.8811C172.881 25.5858 161.268 27.2448 154.035 30.5127C153.017 25.1331 150.928 20.2565 150.826 19.955C150.419 18.9995 149.553 18.2456 148.534 17.9942C147.465 17.6925 146.395 17.9439 145.58 18.5472C142.32 21.0107 140.334 25.0329 139.111 28.4014C126.378 18.4467 113.695 21.3123 113.135 21.4131C111.76 21.7148 110.741 22.871 110.537 24.2285C110.334 25.586 110.996 26.9433 112.218 27.6474C115.071 29.2559 118.84 31.8201 121.692 34.334C114.51 33.2279 107.43 33.6299 100.707 35.0882C99.179 35.4399 97.6001 35.7416 96.123 36.1941C86.2928 39.1605 77.4301 44.5401 70.4522 51.9807C67.549 50.4725 63.2193 48.6122 56.8527 46.2492C51.25 44.2382 46.0547 42.8302 41.0123 41.8752C32.7606 40.3165 20.6893 39.2607 11.4193 47.5564C6.42797 51.8293 3.27014 58.6166 3.01531 65.2025C2.81161 70.6826 4.64515 75.7101 8.21059 79.3299C14.0681 85.4134 23.3383 86.8713 32.1497 86.8713C36.6829 86.8713 41.1141 86.4692 44.9342 86.1675L46.3605 86.0668C49.722 85.8154 52.5745 85.5137 55.0194 85.162L52.4726 99.2391L52.4711 99.2505L52.5236 99.2391C60.673 97.5295 68.7205 100.395 74.3234 102.859C74.6799 103.01 75.0366 103.261 75.3928 103.412C77.7358 104.518 80.1807 105.725 82.6258 107.032C85.1215 108.339 87.6682 109.747 90.2659 111.205C93.3221 112.914 96.378 114.674 99.4849 116.282C102.949 118.092 106.972 120.103 111.353 121.913C116.191 123.874 121.438 125.634 126.939 126.589C138.144 128.55 149.095 127.494 157.397 126.338C161.37 125.784 165.139 125.131 168.857 124.528L171.914 124.025C174.206 123.673 176.243 123.371 178.229 123.07C180.216 122.818 182.1 122.567 183.883 122.416C184.392 122.366 184.953 122.265 185.513 122.265C191.906 121.764 199.814 121.864 206.471 125.939L209.503 109.043C211.489 109.898 213.731 110.803 216.43 111.808L217.347 112.16C224.783 115.026 235.021 118.947 244.342 118.947C247.959 118.947 251.473 118.344 254.58 116.886C259.215 114.724 262.577 110.752 264.003 105.725C265.683 99.8927 266.55 92.8127 261.534 86.9728V86.973Z" fill="#7C4EC4"/>
<path d="M233.85 86.0167C230.845 85.6147 224.427 85.313 221.014 87.1229C217.602 88.8824 207.007 96.3232 223.51 103.664C229.011 105.825 237.619 109.395 243.324 106.63C248.621 104.066 249.232 97.0271 246.329 92.5024C243.324 87.7765 238.994 86.7709 233.799 86.0672L233.85 86.0169V86.0167Z" fill="#F5EAD7"/>
<path d="M36.683 52.3823C31.5896 51.4775 27.1584 51.0751 22.6761 55.248C18.4484 59.22 16.7677 66.912 20.8933 71.286C25.4265 76.0117 34.7985 74.9559 40.707 74.3528C58.8395 71.5877 51.2503 60.527 48.4997 57.5606C45.902 54.5944 39.6882 52.9352 36.683 52.4324V52.3821V52.3823Z" fill="#F5EAD7"/>
<path d="M96.6328 97.2787C94.0861 96.826 92.4562 94.413 93.0166 91.8989C93.4749 89.3852 95.9196 87.7765 98.4665 88.3294C101.013 88.7821 102.643 91.195 102.083 93.7087C101.624 96.2226 99.1795 97.731 96.6328 97.2785V97.2787Z" fill="#231F20"/>
<path d="M82.6257 107.032C85.1215 108.339 87.6682 109.747 90.2658 111.205C93.322 112.914 96.378 114.674 99.4849 116.283C102.938 118.087 106.948 120.091 111.313 121.897L111.302 121.813C115.835 109.094 124.799 76.4144 99.0775 71.1352C78.7036 67.0628 75.6476 98.5357 75.342 103.312L75.3179 103.376L75.3928 103.412C77.7358 104.518 80.1806 105.725 82.6257 107.032V107.032Z" fill="white"/>
<path d="M168.857 124.528L171.914 124.025C174.206 123.673 176.243 123.372 178.229 123.07C180.184 122.823 182.039 122.576 183.796 122.425L183.781 122.316C184.749 119.048 193.815 86.8715 172.678 83.7543C146.497 79.9836 143.747 114.222 143.645 127.544L143.607 127.62C148.65 127.443 153.34 126.903 157.397 126.338C161.37 125.785 165.139 125.131 168.858 124.528L168.857 124.528Z" fill="white"/>
<path d="M90.2661 111.205C93.3222 112.914 96.3782 114.674 99.4851 116.282C100.873 117.007 102.354 117.765 103.908 118.529C104.564 118.03 105.242 117.399 105.464 117.109C108.803 112.754 110.946 106.94 111.416 101.048C111.944 94.4159 110.352 87.6851 105.962 82.8253C103.575 80.1839 100.079 78.3713 96.4995 78.5769C91.7849 78.8475 87.908 82.447 85.4429 86.4236C82.73 90.8 81.1937 95.8803 81.0322 101.009C80.9899 102.348 80.9148 104.636 81.3062 106.339L82.6263 107.032C85.1221 108.339 87.6688 109.747 90.2665 111.205L90.2661 111.205Z" fill="#231F20"/>
<path d="M89.7565 146.649C93.8312 147.353 97.7531 144.638 98.4662 140.616C99.179 136.594 96.4288 132.723 92.3541 132.019C88.2792 131.315 84.3575 134.03 83.6443 138.052C82.9312 142.074 85.6816 145.945 89.7565 146.649V146.649Z" fill="#5E3883"/>
<path d="M158.823 143.08C154.748 142.376 150.826 145.091 150.114 149.113C149.4 153.135 152.151 157.006 156.226 157.71C160.3 158.414 164.222 155.699 164.935 151.677C165.648 147.655 162.898 143.784 158.823 143.08V143.08Z" fill="#5E3883"/>
<path d="M161.93 182.295C159.995 181.842 159.078 180.082 158.772 179.228C158.008 177.317 155.92 176.262 154.035 176.815C152.915 177.066 151.998 177.77 151.488 178.775C150.979 179.731 150.928 180.887 151.387 181.943C151.438 182.094 151.591 182.395 151.743 182.798C145.427 186.417 130.707 193.205 112.524 190.389C95.5116 187.724 86.7509 176.362 83.4401 170.933C84.2042 170.128 84.6118 169.474 84.6627 169.374C85.834 167.664 85.325 165.201 83.3894 163.894C81.5045 162.788 79.1108 163.341 77.9902 165.251C77.9902 165.352 76.7678 167.313 74.374 167.061C73.3044 167.061 72.1836 167.463 71.4197 168.268C70.7575 168.972 70.401 169.927 70.4519 170.882C70.3499 172.793 71.7762 174.502 73.7627 174.804H74.3229C74.9852 174.804 75.6981 174.804 76.3602 174.703C79.8747 180.937 89.8071 194.411 111.403 198.182C115.07 198.835 118.585 199.087 121.946 199.087C138.806 199.087 151.743 192.098 157.193 188.579C158.11 189.082 159.077 189.434 160.096 189.685L160.86 189.786C162.745 189.786 164.222 188.73 164.935 186.719C165.24 184.808 164.018 182.898 161.93 182.295H161.93Z" fill="#AE8BBC"/>
<path d="M168.858 124.528L171.914 124.025C173.572 123.77 175.096 123.542 176.564 123.321C177.823 121.223 178.95 118.771 179.757 116.232C183.17 104.769 179.452 93.6084 171.506 91.2453C163.56 88.832 154.29 96.2227 150.776 107.686C148.545 114.891 149.295 122.12 152.114 126.996C153.968 126.796 155.736 126.569 157.397 126.338C161.37 125.785 165.139 125.131 168.858 124.528V124.528Z" fill="#231F20"/>
<path d="M171.251 105.272C171.71 102.759 169.927 100.446 167.38 100.094C164.834 99.6414 162.491 101.401 162.134 103.915C161.676 106.429 163.458 108.641 166.005 109.093C168.552 109.546 170.895 107.786 171.251 105.272V105.272Z" fill="white"/>
<path d="M98.4666 88.3294C95.9706 87.7763 93.4748 89.3852 93.0167 91.8989C92.4561 94.3625 94.0861 96.826 96.6328 97.2783C99.1795 97.731 101.625 96.2228 102.083 93.7087C102.643 91.2453 101.013 88.7821 98.4666 88.3294Z" fill="white"/>
</g>
<defs>
<clipPath id="clip0_902_8098">
<rect width="262.317" height="221.833" transform="translate(3 4)"/>
</clipPath>
</defs>
</svg>
